<svg width="1024" height="1024" viewBox="0 0 1024 1024" fill="none" xmlns="http://www.w3.org/2000/svg">
<g clip-path="url(#clip0_64_1603)">
<path d="M50 0C22.3858 0 0 22.3858 0 50V974C0 1001.61 22.3858 1024 50 1024H974C1001.61 1024 1024 1001.61 1024 974V50C1024 22.3858 1001.61 0 974 0H50Z" fill="white"/>
<path d="M721.052 440.112V435.88C634.307 431.328 549.741 372.933 514.387 294.107C476.356 209.317 526.42 113.934 621.6 104.088C652.839 100.857 680.01 105.713 710.472 112.131C658.192 64.9318 556.91 55.3908 503.127 104.107C477.577 127.252 464.671 163.425 459.642 196.771C444.885 294.586 532.455 396.793 619.484 428.014C652.676 439.923 686.312 440.112 721.052 440.112ZM577.164 287.759C626.34 256.35 667.873 227.413 729.516 233.16C847.246 244.132 932.64 378.464 887.755 488.78C849.521 582.751 732.498 607.252 649.108 560.986C591.777 529.178 554.851 473.767 534.844 412.604C529.29 431.006 537.161 459.71 541.192 478.2C557.272 551.949 605.876 619.398 659.688 670.631C676.282 686.427 694.234 700.718 712.588 714.394C718.57 718.85 732.671 725.289 734.944 732.841C738.892 745.956 692.647 770.098 682.964 775.625C619.279 811.976 553.945 820.992 481.944 820.992C486.032 742.926 500.413 667.108 496.631 588.232C492.171 495.223 469.673 411.226 439.624 323.731C437.172 337.703 443.683 356.113 445.682 370.284C449.832 399.681 452.13 429.565 454.193 459.156C459.574 536.297 451.072 618.067 438.154 694.032C433.572 720.966 429.027 747.753 423.341 774.44C421.56 782.804 421.219 798.38 414.353 804.396C407.685 810.24 391.498 801.508 384.608 798.911C355.957 788.116 328.898 773.767 304.2 755.624C215.927 690.782 148.236 571.945 168.981 459.194C169.866 454.395 171.525 448.804 177.57 449.784C209.029 454.888 230.216 480.483 266.112 475.11C337.591 464.416 392.499 401.435 388.576 327.963C385.558 271.432 352.838 215.733 314.655 175.611C305.269 165.749 285.842 138.131 270.344 141.493C244.173 147.17 212.761 178.79 194.168 196.829C132.271 256.887 87.6971 332.058 69.381 416.836C56.5496 476.23 55.9592 537.065 67.21 596.696C77.4663 651.066 98.019 702.487 127.941 749.048C296.405 1011.19 699.911 1022.18 881.866 768.092C911.565 726.62 934.331 679.791 947.962 630.552C980.732 512.183 965.628 369.803 888.889 270.831C832.066 197.548 718.291 147.79 634.296 209.101C606.386 229.474 592.799 258.216 577.164 287.759Z" fill="#2D2D2D"/>
<path d="M263.996 347.007C250.767 340.156 233.97 313.217 221.206 311.31C214.124 310.25 208.948 323.139 206.439 327.963C197.683 344.79 184.153 370.965 194.799 389.327C232.48 454.329 327.421 413.42 335.466 349.123C340.145 311.723 321.541 273.37 300.933 243.329C284.291 219.074 257.563 230.773 247.525 256.019C235.151 287.143 262.238 316.825 263.996 347.007Z" fill="white"/>
</g>
<defs>
<clipPath id="clip0_64_1603">
<rect width="1024" height="1024" fill="white"/>
</clipPath>
</defs>
</svg>
